<svg height="512" viewBox="0 0 512 512" width="512" xmlns="http://www.w3.org/2000/svg"><g id="flat"><path d="m352 392a8 8 0 0 1 -8-8v-56a8 8 0 0 1 16 0v56a8 8 0 0 1 -8 8z" fill="#c38325"/><path d="m360 329.76v16.49l-8.98-2.25h-7.02v-16h8a7.93 7.93 0 0 1 1.94.24z" fill="#97661d"/><path d="m160 392a8 8 0 0 1 -8-8v-56a8 8 0 0 1 16 0v56a8 8 0 0 1 -8 8z" fill="#c38325"/><path d="m360 329.76v16.49l-8.98-2.25h-7.02v-16h8a7.93 7.93 0 0 1 1.94.24z" fill="#97661d"/><path d="m96 392a8 8 0 0 1 -8-8v-88a8 8 0 0 1 16 0v88a8 8 0 0 1 -8 8z" fill="#c38325"/><path d="m128 336a8 8 0 0 1 -8-8v-32a8 8 0 0 1 16 0v32a8 8 0 0 1 -8 8z" fill="#c38325"/><path d="m160 304h-80a8 8 0 0 1 0-16h80a8 8 0 0 1 0 16z" fill="#c38325"/><path d="m160 232h192v96h-192z" fill="#ea9d2d"/><path d="m371.056 232h-230.112a8 8 0 0 1 -7.155-11.578l3.484-6.967a300.068 300.068 0 0 0 22.714-61.4l.013-.055h192l.013.052a300.068 300.068 0 0 0 22.714 61.4l3.484 6.967a8 8 0 0 1 -7.155 11.581z" fill="#d18d28"/><path d="m354.83 162.48-5 12.49a8 8 0 0 1 -14.86-5.94l6.81-17.03h10.22l.01.05q1.305 5.25 2.82 10.43z" fill="#d18d28"/><path d="m256 264a24 24 0 0 1 24 24v40a0 0 0 0 1 0 0h-48a0 0 0 0 1 0 0v-40a24 24 0 0 1 24-24z" fill="#c38325"/><path d="m280 288v40h-8v-40a23.993 23.993 0 0 0 -20-23.66 22.974 22.974 0 0 1 4-.34 24 24 0 0 1 24 24z" fill="#97661d"/><g fill="#c38325"><path d="m169.6 216a8 8 0 0 1 -7.426-10.973l6.4-16a8 8 0 1 1 14.856 5.942l-6.4 16a8 8 0 0 1 -7.43 5.031z"/><path d="m184 180a8 8 0 0 1 -7.426-10.973l8-20a8 8 0 1 1 14.856 5.942l-8 20a8 8 0 0 1 -7.43 5.031z"/><path d="m201.6 216a8 8 0 0 1 -7.426-10.973l6.4-16a8 8 0 1 1 14.856 5.942l-6.4 16a8 8 0 0 1 -7.43 5.031z"/><path d="m216 180a8 8 0 0 1 -7.426-10.973l8-20a8 8 0 1 1 14.856 5.942l-8 20a8 8 0 0 1 -7.43 5.031z"/><path d="m233.6 216a8 8 0 0 1 -7.426-10.973l6.4-16a8 8 0 1 1 14.856 5.942l-6.4 16a8 8 0 0 1 -7.43 5.031z"/><path d="m248 180a8 8 0 0 1 -7.426-10.973l8-20a8 8 0 1 1 14.856 5.942l-8 20a8 8 0 0 1 -7.43 5.031z"/><path d="m265.6 216a8 8 0 0 1 -7.426-10.973l6.4-16a8 8 0 1 1 14.856 5.942l-6.4 16a8 8 0 0 1 -7.43 5.031z"/><path d="m280 180a8 8 0 0 1 -7.426-10.973l8-20a8 8 0 0 1 14.856 5.942l-8 20a8 8 0 0 1 -7.43 5.031z"/><path d="m296 216a8 8 0 0 1 -7.426-10.973l6.4-16a8 8 0 1 1 14.856 5.942l-6.4 16a8 8 0 0 1 -7.43 5.031z"/><path d="m310.4 180a8 8 0 0 1 -7.425-10.973l8-20a8 8 0 0 1 14.856 5.942l-8 20a8 8 0 0 1 -7.431 5.031z"/><path d="m328 216a8 8 0 0 1 -7.426-10.973l6.4-16a8 8 0 0 1 14.856 5.942l-6.4 16a8 8 0 0 1 -7.43 5.031z"/><path d="m354.83 162.48-5 12.49a8 8 0 0 1 -14.86-5.94l6.81-17.03h10.22l.01.05q1.305 5.25 2.82 10.43z"/></g><path d="m493.657 266.343a44.363 44.363 0 0 0 -31.336-13.1l1.679-3.354a17.791 17.791 0 0 1 16-9.889 8 8 0 0 0 0-16 33.7 33.7 0 0 0 -30.311 18.733l-1.689 3.379-1.689-3.379a33.7 33.7 0 0 0 -30.311-18.733 8 8 0 0 0 0 16 17.791 17.791 0 0 1 16 9.889l1.679 3.358a44.372 44.372 0 0 0 -31.336 13.1 8 8 0 0 0 11.314 11.314 28.419 28.419 0 0 1 26.213-7.735 139.619 139.619 0 0 1 -7.049 38.317l-8.41 25.231c-1.4 4.192.868 1.133 5.059 2.53a7.679 7.679 0 0 0 2.53-.004c3.35 0 6.471 5.882 7.588 2.53l8.412-25.23a155.539 155.539 0 0 0 7.3-34.527 45.772 45.772 0 0 1 9.544 12.807 8 8 0 1 0 14.31-7.156 61.621 61.621 0 0 0 -9.866-14.244 28.563 28.563 0 0 1 13.054 7.479 8 8 0 0 0 11.314-11.314z" fill="#91a666"/><path d="m280 296h72v32h-72z" fill="#d18d28"/><path d="m88 168h-1.371a24 24 0 0 0 -45.258 0h-1.371a16 16 0 0 0 -16 16 16 16 0 0 0 16 16h48a16 16 0 0 0 16-16 16 16 0 0 0 -16-16z" fill="#eae9e4"/><path d="m120 96h-2.158a15.975 15.975 0 0 0 -27.684 0h-2.158a16 16 0 0 0 -16 16 16 16 0 0 0 16 16h32a16 16 0 0 0 16-16 16 16 0 0 0 -16-16z" fill="#eae9e4"/><path d="m448 152h-2.158a15.975 15.975 0 0 0 -27.684 0h-2.158a16 16 0 0 0 -16 16 16 16 0 0 0 16 16h32a16 16 0 0 0 16-16 16 16 0 0 0 -16-16z" fill="#eae9e4"/><path d="m368 100.686a8 8 0 0 1 -5.657-13.656 19.345 19.345 0 0 1 21.657-3.924 19.349 19.349 0 0 1 21.657 3.923 8 8 0 1 1 -11.314 11.314 3.317 3.317 0 0 0 -4.686 0 8 8 0 0 1 -11.314 0 3.317 3.317 0 0 0 -4.686 0 7.976 7.976 0 0 1 -5.657 2.343z" fill="#d18d28"/><path d="m456 120a7.976 7.976 0 0 1 -5.657-2.343 3.312 3.312 0 0 0 -4.686 0 8 8 0 0 1 -11.314 0 3.312 3.312 0 0 0 -4.686 0 8 8 0 0 1 -11.314-11.314 19.345 19.345 0 0 1 21.657-3.923 19.349 19.349 0 0 1 21.657 3.923 8 8 0 0 1 -5.657 13.657z" fill="#d18d28"/><path d="m408 68.686a8 8 0 0 1 -5.657-13.656 19.345 19.345 0 0 1 21.657-3.924 19.349 19.349 0 0 1 21.657 3.923 8 8 0 1 1 -11.314 11.314 3.317 3.317 0 0 0 -4.686 0 8 8 0 0 1 -11.314 0 3.317 3.317 0 0 0 -4.686 0 7.976 7.976 0 0 1 -5.657 2.343z" fill="#d18d28"/><path d="m160 296h72v32h-72z" fill="#d18d28"/><path d="m172 120h168a12 12 0 0 1 12 12v20a0 0 0 0 1 0 0h-192a0 0 0 0 1 0 0v-20a12 12 0 0 1 12-12z" fill="#c38325"/><path d="m120 304h16v8h-16z" fill="#97661d"/><path d="m88 304h16v8h-16z" fill="#97661d"/><path d="m88 336h16v8h-16z" fill="#97661d"/><path d="m152 336h16v8h-16z" fill="#97661d"/><path d="m408 384a8 8 0 0 1 -8-8v-32h-16a7.977 7.977 0 0 1 -1.94-.239l-31.045-7.761h-271.015a8 8 0 0 1 0-16h272a7.977 7.977 0 0 1 1.94.239l31.045 7.761h23.015a8 8 0 0 1 8 8v40a8 8 0 0 1 -8 8z" fill="#c38325"/><path d="m302.393 406c-46.4 0-46.4-12-92.8-12s-46.4 12-92.8 12-46.393-12-92.793-12v32c46.4 0 46.4 12 92.8 12s46.4-12 92.8-12 46.4 12 92.8 12 46.4-12 92.8-12 46.4 12 92.8 12v-32c-46.4 0-46.4-12-92.8-12s-46.4 12-92.807 12z" fill="#5ebef7"/><path d="m395.2 362c-46.4 0-46.4 12-92.8 12s-46.4-12-92.8-12-46.4 12-92.8 12-46.4-12-92.8-12v32c46.4 0 46.4 12 92.8 12s46.4-12 92.8-12 46.4 12 92.8 12 46.4-12 92.8-12 46.4 12 92.8 12v-32c-46.4 0-46.4-12-92.8-12z" fill="#92d1f7"/><path d="m488 344h-80a8 8 0 0 1 0-16h80a8 8 0 0 1 0 16z" fill="#c38325"/><path d="m400 344h16v8h-16z" fill="#97661d"/></g></svg>